<svg width="99" height="60" viewBox="0 0 99 60" fill="none" xmlns="http://www.w3.org/2000/svg">
<g clip-path="url(#clip0_7373_82)">
<path d="M1.89055 1.66109C2.40764 1.68024 3.09709 1.69939 3.95891 1.71855C4.82073 1.7377 5.68255 1.74727 6.54436 1.74727C7.48279 1.74727 8.38291 1.7377 9.24473 1.71855C10.1257 1.69939 10.7481 1.68982 11.112 1.68982C13.6017 1.68982 15.4594 2.11115 16.6851 2.95382C17.9299 3.79648 18.5524 4.87855 18.5524 6.2C18.5524 6.8703 18.3321 7.55976 17.8916 8.26836C17.4512 8.95782 16.7713 9.58024 15.852 10.1356C14.9519 10.6719 13.7932 11.0453 12.376 11.256V11.3135C14.2528 11.4284 15.7467 11.7539 16.8575 12.2902C17.9874 12.8073 18.8013 13.4297 19.2993 14.1575C19.7972 14.8852 20.0462 15.6417 20.0462 16.4269C20.0462 17.6718 19.711 18.7059 19.0407 19.5295C18.3896 20.353 17.4416 20.9754 16.1967 21.3967C14.971 21.7989 13.4964 22 11.7727 22C11.3131 22 10.6428 21.9904 9.76182 21.9713C8.88085 21.933 7.82752 21.9138 6.60182 21.9138C5.7017 21.9138 4.82073 21.9234 3.95891 21.9425C3.09709 21.9425 2.40764 21.9617 1.89055 22V21.4255C2.48424 21.3872 2.92473 21.3105 3.212 21.1956C3.51842 21.0807 3.71952 20.8509 3.81527 20.5062C3.93018 20.1615 3.98764 19.6444 3.98764 18.9549V4.70618C3.98764 3.99757 3.93018 3.48048 3.81527 3.15491C3.71952 2.81018 3.51842 2.58036 3.212 2.46545C2.92473 2.33139 2.48424 2.25479 1.89055 2.23564V1.66109ZM10.8535 2.23564C10.164 2.23564 9.71394 2.39842 9.50327 2.724C9.29261 3.04958 9.18727 3.7103 9.18727 4.70618V18.9549C9.18727 19.6252 9.23515 20.1327 9.33091 20.4775C9.44582 20.8222 9.63733 21.052 9.90545 21.1669C10.1736 21.2818 10.5758 21.3393 11.112 21.3393C12.3377 21.3393 13.2282 20.9084 13.7836 20.0465C14.3582 19.1656 14.6455 17.9207 14.6455 16.312C14.6455 14.8373 14.2816 13.6978 13.5538 12.8935C12.8452 12.0891 11.6578 11.6869 9.99164 11.6869H7.72218C7.72218 11.6869 7.72218 11.6103 7.72218 11.4571C7.72218 11.2847 7.72218 11.1985 7.72218 11.1985H10.1927C11.0162 11.1985 11.6482 10.9879 12.0887 10.5665C12.5292 10.1261 12.8356 9.55151 13.008 8.84291C13.1804 8.11515 13.2665 7.33951 13.2665 6.516C13.2665 5.09879 13.075 4.03588 12.692 3.32727C12.3281 2.59951 11.7153 2.23564 10.8535 2.23564ZM31.5802 6.71709C32.2313 6.71709 32.7484 6.86073 33.1315 7.148C33.5145 7.41612 33.7922 7.77042 33.9645 8.21091C34.1369 8.63224 34.2231 9.05358 34.2231 9.47491C34.2231 10.2601 33.9933 10.8921 33.5336 11.3709C33.0932 11.8497 32.509 12.0891 31.7813 12.0891C31.0152 12.0891 30.4311 11.9167 30.0289 11.572C29.6267 11.2081 29.4256 10.7293 29.4256 10.1356C29.4256 9.54194 29.5501 9.05358 29.7991 8.67055C30.0672 8.28751 30.3928 7.96194 30.7758 7.69382C30.4885 7.65552 30.2108 7.69382 29.9427 7.80873C29.6363 7.88533 29.349 8.02897 29.0809 8.23964C28.8128 8.4503 28.583 8.69927 28.3915 8.98655C28.1999 9.27382 28.0467 9.58982 27.9318 9.93455C27.8361 10.2601 27.7882 10.5953 27.7882 10.94V19.0411C27.7882 19.9604 27.9893 20.5828 28.3915 20.9084C28.8128 21.2339 29.4735 21.3967 30.3736 21.3967V22C29.9332 21.9808 29.282 21.9617 28.4202 21.9425C27.5584 21.9042 26.6678 21.8851 25.7485 21.8851C24.925 21.8851 24.0919 21.9042 23.2493 21.9425C22.4258 21.9617 21.8129 21.9808 21.4107 22V21.3967C22.0427 21.3967 22.4832 21.2531 22.7322 20.9658C23.0003 20.6785 23.1344 20.1327 23.1344 19.3284V10.2505C23.1344 9.38873 23.0099 8.75673 22.7609 8.35455C22.5119 7.93321 22.0619 7.72255 21.4107 7.72255V7.11927C22.0236 7.17673 22.6173 7.20545 23.1918 7.20545C24.0536 7.20545 24.8676 7.17673 25.6336 7.11927C26.4188 7.04267 27.137 6.93733 27.7882 6.80327V9.15891C28.018 8.66097 28.3148 8.23006 28.6787 7.86618C29.0618 7.5023 29.4927 7.22461 29.9715 7.03309C30.4694 6.82242 31.0056 6.71709 31.5802 6.71709ZM42.2068 6.71709C43.8921 6.71709 45.2136 7.21503 46.1712 8.21091C47.1287 9.20679 47.6075 10.8442 47.6075 13.1233H38.3861L38.3573 12.5775H43.7006C43.7389 11.639 43.7006 10.7772 43.5857 9.992C43.4708 9.18764 43.2793 8.54606 43.0112 8.06727C42.7622 7.58848 42.427 7.34909 42.0057 7.34909C41.4312 7.34909 40.9428 7.76085 40.5406 8.58436C40.1384 9.40788 39.8895 10.8059 39.7937 12.7785L39.9086 12.9796C39.8703 13.1903 39.8512 13.4105 39.8512 13.6404C39.8512 13.851 39.8512 14.0808 39.8512 14.3298C39.8512 15.6513 40.0235 16.7046 40.3683 17.4898C40.7321 18.275 41.1822 18.8304 41.7184 19.156C42.2547 19.4816 42.8101 19.6444 43.3846 19.6444C43.7102 19.6444 44.0741 19.5965 44.4763 19.5007C44.8784 19.405 45.2998 19.2039 45.7403 18.8975C46.1807 18.591 46.6021 18.141 47.0043 17.5473L47.4926 17.7196C47.282 18.4665 46.9181 19.2039 46.401 19.9316C45.903 20.6402 45.2615 21.2339 44.4763 21.7127C43.691 22.1724 42.743 22.4022 41.6323 22.4022C40.3683 22.4022 39.2383 22.1436 38.2424 21.6265C37.2466 21.0903 36.4518 20.2572 35.8581 19.1273C35.2835 17.9782 34.9963 16.4844 34.9963 14.6458C34.9963 12.8264 35.3123 11.3326 35.9443 10.1644C36.5763 8.99612 37.4381 8.1343 38.5297 7.57891C39.6213 7.00436 40.847 6.71709 42.2068 6.71709ZM56.2311 7.11927V7.72255C55.8098 7.72255 55.4555 7.75127 55.1682 7.80873C54.8809 7.84703 54.6798 7.96194 54.5649 8.15345C54.4692 8.34497 54.4787 8.65139 54.5936 9.07273L57.2366 17.6047L56.8056 18.1218L59.8795 7.11927L60.4827 7.40655L56.3747 22.0287C55.9917 21.9904 55.5991 21.9713 55.1969 21.9713C54.8139 21.9713 54.4309 21.9904 54.0478 22.0287L49.5664 9.33127C49.2983 8.56521 49.0014 8.10558 48.6758 7.95236C48.3694 7.79915 48.1109 7.72255 47.9002 7.72255V7.11927C48.5896 7.17673 49.3078 7.22461 50.0547 7.26291C50.8016 7.28206 51.6156 7.29164 52.4966 7.29164C53.0903 7.29164 53.7127 7.27248 54.3638 7.23418C55.0341 7.19588 55.6566 7.15758 56.2311 7.11927ZM70.9682 7.11927V7.72255C70.6043 7.83745 70.25 8.07685 69.9053 8.44073C69.5797 8.78545 69.2637 9.41745 68.9573 10.3367L65.2515 22.0287C64.8684 21.9904 64.4854 21.9713 64.1024 21.9713C63.7193 21.9713 63.3267 21.9904 62.9246 22.0287L59.1038 11.1985L59.9082 7.11927C60.3295 7.13842 60.7604 7.148 61.2009 7.148C61.6414 7.148 62.0723 7.13842 62.4936 7.11927L66.2282 18.6389L65.8835 18.1505L67.5209 12.9222C67.8848 11.7348 68.0189 10.7676 67.9231 10.0207C67.8465 9.27382 67.5975 8.71842 67.1762 8.35455C66.774 7.97151 66.2665 7.76085 65.6536 7.72255V7.11927C65.9218 7.13842 66.2569 7.15758 66.6591 7.17673C67.0613 7.19588 67.4539 7.21503 67.8369 7.23418C68.22 7.23418 68.5264 7.23418 68.7562 7.23418C69.1201 7.23418 69.5223 7.22461 69.9627 7.20545C70.4032 7.1863 70.7384 7.15758 70.9682 7.11927ZM34.5734 39.6611C35.0905 39.6802 35.78 39.6994 36.6418 39.7185C37.5036 39.7377 38.3654 39.7473 39.2272 39.7473C40.1657 39.7473 41.0658 39.7377 41.9276 39.7185C42.8086 39.6994 43.431 39.6898 43.7949 39.6898C46.2846 39.6898 48.1423 40.1112 49.368 40.9538C50.6128 41.7965 51.2352 42.8785 51.2352 44.2C51.2352 44.8703 51.015 45.5598 50.5745 46.2684C50.134 46.9578 49.4542 47.5802 48.5349 48.1356C47.6348 48.6719 46.4761 49.0453 45.0589 49.256V49.3135C46.9357 49.4284 48.4296 49.7539 49.5403 50.2902C50.6703 50.8073 51.4842 51.4297 51.9822 52.1575C52.4801 52.8852 52.7291 53.6417 52.7291 54.4269C52.7291 55.6718 52.3939 56.7059 51.7236 57.5295C51.0725 58.353 50.1245 58.9754 48.8796 59.3967C47.6539 59.7989 46.1792 60 44.4556 60C43.996 60 43.3257 59.9904 42.4447 59.9713C41.5637 59.933 40.5104 59.9138 39.2847 59.9138C38.3846 59.9138 37.5036 59.9234 36.6418 59.9425C35.78 59.9425 35.0905 59.9617 34.5734 60V59.4255C35.1671 59.3872 35.6076 59.3105 35.8949 59.1956C36.2013 59.0807 36.4024 58.8509 36.4982 58.5062C36.6131 58.1615 36.6705 57.6444 36.6705 56.9549V42.7062C36.6705 41.9976 36.6131 41.4805 36.4982 41.1549C36.4024 40.8102 36.2013 40.5804 35.8949 40.4655C35.6076 40.3314 35.1671 40.2548 34.5734 40.2356V39.6611ZM43.5363 40.2356C42.8469 40.2356 42.3968 40.3984 42.1862 40.724C41.9755 41.0496 41.8702 41.7103 41.8702 42.7062V56.9549C41.8702 57.6252 41.918 58.1327 42.0138 58.4775C42.1287 58.8222 42.3202 59.052 42.5883 59.1669C42.8565 59.2818 43.2586 59.3393 43.7949 59.3393C45.0206 59.3393 45.9111 58.9084 46.4665 58.0465C47.0411 57.1656 47.3283 55.9207 47.3283 54.312C47.3283 52.8373 46.9645 51.6978 46.2367 50.8935C45.5281 50.0891 44.3407 49.6869 42.6745 49.6869H40.4051C40.4051 49.6869 40.4051 49.6103 40.4051 49.4571C40.4051 49.2847 40.4051 49.1985 40.4051 49.1985H42.8756C43.6991 49.1985 44.3311 48.9879 44.7716 48.5665C45.2121 48.1261 45.5185 47.5515 45.6909 46.8429C45.8632 46.1152 45.9494 45.3395 45.9494 44.516C45.9494 43.0988 45.7579 42.0359 45.3749 41.3273C45.011 40.5995 44.3982 40.2356 43.5363 40.2356ZM60.1878 37.5353V57.3284C60.1878 58.1327 60.3123 58.6785 60.5613 58.9658C60.8294 59.2531 61.2795 59.3967 61.9115 59.3967V60C61.5476 59.9808 60.9922 59.9617 60.2453 59.9425C59.4984 59.9042 58.7323 59.8851 57.9471 59.8851C57.181 59.8851 56.3958 59.9042 55.5915 59.9425C54.8063 59.9617 54.2126 59.9808 53.8104 60V59.3967C54.4424 59.3967 54.8829 59.2531 55.1318 58.9658C55.4 58.6785 55.534 58.1327 55.534 57.3284V40.9538C55.534 40.1112 55.4095 39.4887 55.1606 39.0865C54.9307 38.6652 54.4807 38.4545 53.8104 38.4545V37.8513C54.4232 37.9087 55.0169 37.9375 55.5915 37.9375C56.4724 37.9375 57.296 37.9087 58.062 37.8513C58.8281 37.7747 59.5367 37.6693 60.1878 37.5353ZM66.9764 37.6215C67.8766 37.6215 68.5756 37.8225 69.0735 38.2247C69.5906 38.6269 69.8492 39.211 69.8492 39.9771C69.8492 40.7432 69.5906 41.3273 69.0735 41.7295C68.5756 42.1316 67.8766 42.3327 66.9764 42.3327C66.0763 42.3327 65.3677 42.1316 64.8506 41.7295C64.3527 41.3273 64.1037 40.7432 64.1037 39.9771C64.1037 39.211 64.3527 38.6269 64.8506 38.2247C65.3677 37.8225 66.0763 37.6215 66.9764 37.6215ZM69.5044 44.8033V57.3284C69.5044 58.1327 69.6289 58.6785 69.8779 58.9658C70.146 59.2531 70.5961 59.3967 71.2281 59.3967V60C70.8451 59.9808 70.2801 59.9617 69.5332 59.9425C68.7863 59.9042 68.0298 59.8851 67.2637 59.8851C66.4977 59.8851 65.7124 59.9042 64.9081 59.9425C64.1229 59.9617 63.5292 59.9808 63.127 60V59.3967C63.759 59.3967 64.1995 59.2531 64.4484 58.9658C64.7166 58.6785 64.8506 58.1327 64.8506 57.3284V48.2505C64.8506 47.3887 64.7261 46.7567 64.4772 46.3545C64.2282 45.9332 63.7781 45.7225 63.127 45.7225V45.1193C63.7398 45.1767 64.3335 45.2055 64.9081 45.2055C65.7699 45.2055 66.5838 45.1767 67.3499 45.1193C68.1351 45.0427 68.8533 44.9373 69.5044 44.8033ZM78.2445 44.7171C79.0872 44.7171 79.8149 44.8128 80.4278 45.0044C81.0406 45.1959 81.4907 45.3778 81.7779 45.5502C82.4482 45.9715 82.8504 45.7034 82.9845 44.7458H83.5878C83.5495 45.3012 83.5207 45.9715 83.5016 46.7567C83.4824 47.5228 83.4729 48.557 83.4729 49.8593H82.8696C82.793 49.1507 82.6206 48.4516 82.3525 47.7622C82.1035 47.0727 81.7301 46.5078 81.2321 46.0673C80.7342 45.6076 80.083 45.3778 79.2787 45.3778C78.7616 45.3778 78.3211 45.531 77.9572 45.8375C77.6125 46.1439 77.4401 46.5652 77.4401 47.1015C77.4401 47.676 77.6125 48.1835 77.9572 48.624C78.3019 49.0645 78.7424 49.4858 79.2787 49.888C79.8341 50.2902 80.3895 50.7211 80.9449 51.1807C81.5577 51.6404 82.1035 52.1096 82.5823 52.5884C83.0803 53.048 83.4729 53.5555 83.7601 54.1109C84.0666 54.6472 84.2198 55.2983 84.2198 56.0644C84.2198 56.9262 83.9612 57.6827 83.4441 58.3338C82.927 58.985 82.2472 59.4925 81.4045 59.8564C80.5618 60.2202 79.6234 60.4022 78.5892 60.4022C77.9572 60.4022 77.4018 60.3352 76.923 60.2011C76.4634 60.0862 76.0804 59.933 75.7739 59.7415C75.4867 59.6074 75.2281 59.4925 74.9983 59.3967C74.7876 59.301 74.577 59.2339 74.3663 59.1956C74.1748 59.1765 74.012 59.2627 73.8779 59.4542C73.7439 59.6457 73.6386 59.8947 73.5619 60.2011H72.9587C72.997 59.5882 73.0257 58.8413 73.0449 57.9604C73.064 57.0794 73.0736 55.9112 73.0736 54.4556H73.6769C73.7918 55.4898 74.0024 56.3995 74.3089 57.1847C74.6344 57.9699 75.0653 58.5924 75.6016 59.052C76.1378 59.4925 76.7698 59.7127 77.4976 59.7127C77.8232 59.7127 78.12 59.6553 78.3881 59.5404C78.6754 59.4063 78.9052 59.2052 79.0776 58.9371C79.2691 58.669 79.3649 58.3242 79.3649 57.9029C79.3649 57.0602 79.0967 56.3612 78.5605 55.8058C78.0242 55.2313 77.3635 54.6088 76.5783 53.9385C75.9655 53.4215 75.3909 52.9139 74.8547 52.416C74.3376 51.9181 73.9067 51.3722 73.5619 50.7785C73.2364 50.1848 73.0736 49.5145 73.0736 48.7676C73.0736 47.9058 73.313 47.1781 73.7918 46.5844C74.2897 45.9715 74.9313 45.5119 75.7165 45.2055C76.5017 44.8799 77.3444 44.7171 78.2445 44.7171ZM91.6543 44.7171C92.497 44.7171 93.2247 44.8128 93.8376 45.0044C94.4504 45.1959 94.9005 45.3778 95.1878 45.5502C95.8581 45.9715 96.2602 45.7034 96.3943 44.7458H96.9976C96.9593 45.3012 96.9305 45.9715 96.9114 46.7567C96.8922 47.5228 96.8827 48.557 96.8827 49.8593H96.2794C96.2028 49.1507 96.0304 48.4516 95.7623 47.7622C95.5133 47.0727 95.1399 46.5078 94.6419 46.0673C94.144 45.6076 93.4928 45.3778 92.6885 45.3778C92.1714 45.3778 91.7309 45.531 91.367 45.8375C91.0223 46.1439 90.8499 46.5652 90.8499 47.1015C90.8499 47.676 91.0223 48.1835 91.367 48.624C91.7118 49.0645 92.1522 49.4858 92.6885 49.888C93.2439 50.2902 93.7993 50.7211 94.3547 51.1807C94.9675 51.6404 95.5133 52.1096 95.9921 52.5884C96.4901 53.048 96.8827 53.5555 97.1699 54.1109C97.4764 54.6472 97.6296 55.2983 97.6296 56.0644C97.6296 56.9262 97.371 57.6827 96.8539 58.3338C96.3368 58.985 95.657 59.4925 94.8143 59.8564C93.9716 60.2202 93.0332 60.4022 91.999 60.4022C91.367 60.4022 90.8116 60.3352 90.3328 60.2011C89.8732 60.0862 89.4902 59.933 89.1838 59.7415C88.8965 59.6074 88.6379 59.4925 88.4081 59.3967C88.1974 59.301 87.9868 59.2339 87.7761 59.1956C87.5846 59.1765 87.4218 59.2627 87.2878 59.4542C87.1537 59.6457 87.0484 59.8947 86.9718 60.2011H86.3685C86.4068 59.5882 86.4355 58.8413 86.4547 57.9604C86.4738 57.0794 86.4834 55.9112 86.4834 54.4556H87.0867C87.2016 55.4898 87.4122 56.3995 87.7187 57.1847C88.0442 57.9699 88.4751 58.5924 89.0114 59.052C89.5476 59.4925 90.1796 59.7127 90.9074 59.7127C91.233 59.7127 91.5298 59.6553 91.7979 59.5404C92.0852 59.4063 92.315 59.2052 92.4874 58.9371C92.6789 58.669 92.7747 58.3242 92.7747 57.9029C92.7747 57.0602 92.5065 56.3612 91.9703 55.8058C91.4341 55.2313 90.7733 54.6088 89.9881 53.9385C89.3753 53.4215 88.8007 52.9139 88.2645 52.416C87.7474 51.9181 87.3165 51.3722 86.9718 50.7785C86.6462 50.1848 86.4834 49.5145 86.4834 48.7676C86.4834 47.9058 86.7228 47.1781 87.2016 46.5844C87.6995 45.9715 88.3411 45.5119 89.1263 45.2055C89.9115 44.8799 90.7542 44.7171 91.6543 44.7171Z" fill="#4B2E2A"/>
</g>
<defs>
<clipPath id="clip0_7373_82">
<rect width="99" height="60" fill="white"/>
</clipPath>
</defs>
</svg>
