<svg width="99" height="60" viewBox="0 0 99 60" fill="none" xmlns="http://www.w3.org/2000/svg">
<g clip-path="url(#clip0_7295_181)">
<path d="M1.89055 2.66109C2.40764 2.68024 3.09709 2.69939 3.95891 2.71855C4.82073 2.7377 5.68255 2.74727 6.54436 2.74727C7.48279 2.74727 8.38291 2.7377 9.24473 2.71855C10.1257 2.69939 10.7481 2.68982 11.112 2.68982C13.6017 2.68982 15.4594 3.11115 16.6851 3.95382C17.9299 4.79648 18.5524 5.87855 18.5524 7.2C18.5524 7.8703 18.3321 8.55976 17.8916 9.26836C17.4512 9.95782 16.7713 10.5802 15.852 11.1356C14.9519 11.6719 13.7932 12.0453 12.376 12.256V12.3135C14.2528 12.4284 15.7467 12.7539 16.8575 13.2902C17.9874 13.8073 18.8013 14.4297 19.2993 15.1575C19.7972 15.8852 20.0462 16.6417 20.0462 17.4269C20.0462 18.6718 19.711 19.7059 19.0407 20.5295C18.3896 21.353 17.4416 21.9754 16.1967 22.3967C14.971 22.7989 13.4964 23 11.7727 23C11.3131 23 10.6428 22.9904 9.76182 22.9713C8.88085 22.933 7.82752 22.9138 6.60182 22.9138C5.7017 22.9138 4.82073 22.9234 3.95891 22.9425C3.09709 22.9425 2.40764 22.9617 1.89055 23V22.4255C2.48424 22.3872 2.92473 22.3105 3.212 22.1956C3.51842 22.0807 3.71952 21.8509 3.81527 21.5062C3.93018 21.1615 3.98764 20.6444 3.98764 19.9549V5.70618C3.98764 4.99757 3.93018 4.48048 3.81527 4.15491C3.71952 3.81018 3.51842 3.58036 3.212 3.46545C2.92473 3.33139 2.48424 3.25479 1.89055 3.23564V2.66109ZM10.8535 3.23564C10.164 3.23564 9.71394 3.39842 9.50327 3.724C9.29261 4.04958 9.18727 4.7103 9.18727 5.70618V19.9549C9.18727 20.6252 9.23515 21.1327 9.33091 21.4775C9.44582 21.8222 9.63733 22.052 9.90545 22.1669C10.1736 22.2818 10.5758 22.3393 11.112 22.3393C12.3377 22.3393 13.2282 21.9084 13.7836 21.0465C14.3582 20.1656 14.6455 18.9207 14.6455 17.312C14.6455 15.8373 14.2816 14.6978 13.5538 13.8935C12.8452 13.0891 11.6578 12.6869 9.99164 12.6869H7.72218C7.72218 12.6869 7.72218 12.6103 7.72218 12.4571C7.72218 12.2847 7.72218 12.1985 7.72218 12.1985H10.1927C11.0162 12.1985 11.6482 11.9879 12.0887 11.5665C12.5292 11.1261 12.8356 10.5515 13.008 9.84291C13.1804 9.11515 13.2665 8.33951 13.2665 7.516C13.2665 6.09879 13.075 5.03588 12.692 4.32727C12.3281 3.59951 11.7153 3.23564 10.8535 3.23564ZM31.5802 7.71709C32.2313 7.71709 32.7484 7.86073 33.1315 8.148C33.5145 8.41612 33.7922 8.77042 33.9645 9.21091C34.1369 9.63224 34.2231 10.0536 34.2231 10.4749C34.2231 11.2601 33.9933 11.8921 33.5336 12.3709C33.0932 12.8497 32.509 13.0891 31.7813 13.0891C31.0152 13.0891 30.4311 12.9167 30.0289 12.572C29.6267 12.2081 29.4256 11.7293 29.4256 11.1356C29.4256 10.5419 29.5501 10.0536 29.7991 9.67055C30.0672 9.28751 30.3928 8.96194 30.7758 8.69382C30.4885 8.65552 30.2108 8.69382 29.9427 8.80873C29.6363 8.88533 29.349 9.02897 29.0809 9.23964C28.8128 9.4503 28.583 9.69927 28.3915 9.98655C28.1999 10.2738 28.0467 10.5898 27.9318 10.9345C27.8361 11.2601 27.7882 11.5953 27.7882 11.94V20.0411C27.7882 20.9604 27.9893 21.5828 28.3915 21.9084C28.8128 22.2339 29.4735 22.3967 30.3736 22.3967V23C29.9332 22.9808 29.282 22.9617 28.4202 22.9425C27.5584 22.9042 26.6678 22.8851 25.7485 22.8851C24.925 22.8851 24.0919 22.9042 23.2493 22.9425C22.4258 22.9617 21.8129 22.9808 21.4107 23V22.3967C22.0427 22.3967 22.4832 22.2531 22.7322 21.9658C23.0003 21.6785 23.1344 21.1327 23.1344 20.3284V11.2505C23.1344 10.3887 23.0099 9.75673 22.7609 9.35455C22.5119 8.93321 22.0619 8.72255 21.4107 8.72255V8.11927C22.0236 8.17673 22.6173 8.20545 23.1918 8.20545C24.0536 8.20545 24.8676 8.17673 25.6336 8.11927C26.4188 8.04267 27.137 7.93733 27.7882 7.80327V10.1589C28.018 9.66097 28.3148 9.23006 28.6787 8.86618C29.0618 8.5023 29.4927 8.22461 29.9715 8.03309C30.4694 7.82242 31.0056 7.71709 31.5802 7.71709ZM42.2068 7.71709C43.8921 7.71709 45.2136 8.21503 46.1712 9.21091C47.1287 10.2068 47.6075 11.8442 47.6075 14.1233H38.3861L38.3573 13.5775H43.7006C43.7389 12.639 43.7006 11.7772 43.5857 10.992C43.4708 10.1876 43.2793 9.54606 43.0112 9.06727C42.7622 8.58848 42.427 8.34909 42.0057 8.34909C41.4312 8.34909 40.9428 8.76085 40.5406 9.58436C40.1384 10.4079 39.8895 11.8059 39.7937 13.7785L39.9086 13.9796C39.8703 14.1903 39.8512 14.4105 39.8512 14.6404C39.8512 14.851 39.8512 15.0808 39.8512 15.3298C39.8512 16.6513 40.0235 17.7046 40.3683 18.4898C40.7321 19.275 41.1822 19.8304 41.7184 20.156C42.2547 20.4816 42.8101 20.6444 43.3846 20.6444C43.7102 20.6444 44.0741 20.5965 44.4763 20.5007C44.8784 20.405 45.2998 20.2039 45.7403 19.8975C46.1807 19.591 46.6021 19.141 47.0043 18.5473L47.4926 18.7196C47.282 19.4665 46.9181 20.2039 46.401 20.9316C45.903 21.6402 45.2615 22.2339 44.4763 22.7127C43.691 23.1724 42.743 23.4022 41.6323 23.4022C40.3683 23.4022 39.2383 23.1436 38.2424 22.6265C37.2466 22.0903 36.4518 21.2572 35.8581 20.1273C35.2835 18.9782 34.9963 17.4844 34.9963 15.6458C34.9963 13.8264 35.3123 12.3326 35.9443 11.1644C36.5763 9.99612 37.4381 9.1343 38.5297 8.57891C39.6213 8.00436 40.847 7.71709 42.2068 7.71709ZM56.2311 8.11927V8.72255C55.8098 8.72255 55.4555 8.75127 55.1682 8.80873C54.8809 8.84703 54.6798 8.96194 54.5649 9.15345C54.4692 9.34497 54.4787 9.65139 54.5936 10.0727L57.2366 18.6047L56.8056 19.1218L59.8795 8.11927L60.4827 8.40655L56.3747 23.0287C55.9917 22.9904 55.5991 22.9713 55.1969 22.9713C54.8139 22.9713 54.4309 22.9904 54.0478 23.0287L49.5664 10.3313C49.2983 9.56521 49.0014 9.10558 48.6758 8.95236C48.3694 8.79915 48.1109 8.72255 47.9002 8.72255V8.11927C48.5896 8.17673 49.3078 8.22461 50.0547 8.26291C50.8016 8.28206 51.6156 8.29164 52.4966 8.29164C53.0903 8.29164 53.7127 8.27248 54.3638 8.23418C55.0341 8.19588 55.6566 8.15758 56.2311 8.11927ZM70.9682 8.11927V8.72255C70.6043 8.83745 70.25 9.07685 69.9053 9.44073C69.5797 9.78545 69.2637 10.4175 68.9573 11.3367L65.2515 23.0287C64.8684 22.9904 64.4854 22.9713 64.1024 22.9713C63.7193 22.9713 63.3267 22.9904 62.9246 23.0287L59.1038 12.1985L59.9082 8.11927C60.3295 8.13842 60.7604 8.148 61.2009 8.148C61.6414 8.148 62.0723 8.13842 62.4936 8.11927L66.2282 19.6389L65.8835 19.1505L67.5209 13.9222C67.8848 12.7348 68.0189 11.7676 67.9231 11.0207C67.8465 10.2738 67.5975 9.71842 67.1762 9.35455C66.774 8.97151 66.2665 8.76085 65.6536 8.72255V8.11927C65.9218 8.13842 66.2569 8.15758 66.6591 8.17673C67.0613 8.19588 67.4539 8.21503 67.8369 8.23418C68.22 8.23418 68.5264 8.23418 68.7562 8.23418C69.1201 8.23418 69.5223 8.22461 69.9627 8.20545C70.4032 8.1863 70.7384 8.15758 70.9682 8.11927ZM34.5734 40.6611C35.0905 40.6802 35.78 40.6994 36.6418 40.7185C37.5036 40.7377 38.3654 40.7473 39.2272 40.7473C40.1657 40.7473 41.0658 40.7377 41.9276 40.7185C42.8086 40.6994 43.431 40.6898 43.7949 40.6898C46.2846 40.6898 48.1423 41.1112 49.368 41.9538C50.6128 42.7965 51.2352 43.8785 51.2352 45.2C51.2352 45.8703 51.015 46.5598 50.5745 47.2684C50.134 47.9578 49.4542 48.5802 48.5349 49.1356C47.6348 49.6719 46.4761 50.0453 45.0589 50.256V50.3135C46.9357 50.4284 48.4296 50.7539 49.5403 51.2902C50.6703 51.8073 51.4842 52.4297 51.9822 53.1575C52.4801 53.8852 52.7291 54.6417 52.7291 55.4269C52.7291 56.6718 52.3939 57.7059 51.7236 58.5295C51.0725 59.353 50.1245 59.9754 48.8796 60.3967C47.6539 60.7989 46.1792 61 44.4556 61C43.996 61 43.3257 60.9904 42.4447 60.9713C41.5637 60.933 40.5104 60.9138 39.2847 60.9138C38.3846 60.9138 37.5036 60.9234 36.6418 60.9425C35.78 60.9425 35.0905 60.9617 34.5734 61V60.4255C35.1671 60.3872 35.6076 60.3105 35.8949 60.1956C36.2013 60.0807 36.4024 59.8509 36.4982 59.5062C36.6131 59.1615 36.6705 58.6444 36.6705 57.9549V43.7062C36.6705 42.9976 36.6131 42.4805 36.4982 42.1549C36.4024 41.8102 36.2013 41.5804 35.8949 41.4655C35.6076 41.3314 35.1671 41.2548 34.5734 41.2356V40.6611ZM43.5363 41.2356C42.8469 41.2356 42.3968 41.3984 42.1862 41.724C41.9755 42.0496 41.8702 42.7103 41.8702 43.7062V57.9549C41.8702 58.6252 41.918 59.1327 42.0138 59.4775C42.1287 59.8222 42.3202 60.052 42.5883 60.1669C42.8565 60.2818 43.2586 60.3393 43.7949 60.3393C45.0206 60.3393 45.9111 59.9084 46.4665 59.0465C47.0411 58.1656 47.3283 56.9207 47.3283 55.312C47.3283 53.8373 46.9645 52.6978 46.2367 51.8935C45.5281 51.0891 44.3407 50.6869 42.6745 50.6869H40.4051C40.4051 50.6869 40.4051 50.6103 40.4051 50.4571C40.4051 50.2847 40.4051 50.1985 40.4051 50.1985H42.8756C43.6991 50.1985 44.3311 49.9879 44.7716 49.5665C45.2121 49.1261 45.5185 48.5515 45.6909 47.8429C45.8632 47.1152 45.9494 46.3395 45.9494 45.516C45.9494 44.0988 45.7579 43.0359 45.3749 42.3273C45.011 41.5995 44.3982 41.2356 43.5363 41.2356ZM60.1878 38.5353V58.3284C60.1878 59.1327 60.3123 59.6785 60.5613 59.9658C60.8294 60.2531 61.2795 60.3967 61.9115 60.3967V61C61.5476 60.9808 60.9922 60.9617 60.2453 60.9425C59.4984 60.9042 58.7323 60.8851 57.9471 60.8851C57.181 60.8851 56.3958 60.9042 55.5915 60.9425C54.8063 60.9617 54.2126 60.9808 53.8104 61V60.3967C54.4424 60.3967 54.8829 60.2531 55.1318 59.9658C55.4 59.6785 55.534 59.1327 55.534 58.3284V41.9538C55.534 41.1112 55.4095 40.4887 55.1606 40.0865C54.9307 39.6652 54.4807 39.4545 53.8104 39.4545V38.8513C54.4232 38.9087 55.0169 38.9375 55.5915 38.9375C56.4724 38.9375 57.296 38.9087 58.062 38.8513C58.8281 38.7747 59.5367 38.6693 60.1878 38.5353ZM66.9764 38.6215C67.8766 38.6215 68.5756 38.8225 69.0735 39.2247C69.5906 39.6269 69.8492 40.211 69.8492 40.9771C69.8492 41.7432 69.5906 42.3273 69.0735 42.7295C68.5756 43.1316 67.8766 43.3327 66.9764 43.3327C66.0763 43.3327 65.3677 43.1316 64.8506 42.7295C64.3527 42.3273 64.1037 41.7432 64.1037 40.9771C64.1037 40.211 64.3527 39.6269 64.8506 39.2247C65.3677 38.8225 66.0763 38.6215 66.9764 38.6215ZM69.5044 45.8033V58.3284C69.5044 59.1327 69.6289 59.6785 69.8779 59.9658C70.146 60.2531 70.5961 60.3967 71.2281 60.3967V61C70.8451 60.9808 70.2801 60.9617 69.5332 60.9425C68.7863 60.9042 68.0298 60.8851 67.2637 60.8851C66.4977 60.8851 65.7124 60.9042 64.9081 60.9425C64.1229 60.9617 63.5292 60.9808 63.127 61V60.3967C63.759 60.3967 64.1995 60.2531 64.4484 59.9658C64.7166 59.6785 64.8506 59.1327 64.8506 58.3284V49.2505C64.8506 48.3887 64.7261 47.7567 64.4772 47.3545C64.2282 46.9332 63.7781 46.7225 63.127 46.7225V46.1193C63.7398 46.1767 64.3335 46.2055 64.9081 46.2055C65.7699 46.2055 66.5838 46.1767 67.3499 46.1193C68.1351 46.0427 68.8533 45.9373 69.5044 45.8033ZM78.2445 45.7171C79.0872 45.7171 79.8149 45.8128 80.4278 46.0044C81.0406 46.1959 81.4907 46.3778 81.7779 46.5502C82.4482 46.9715 82.8504 46.7034 82.9845 45.7458H83.5878C83.5495 46.3012 83.5207 46.9715 83.5016 47.7567C83.4824 48.5228 83.4729 49.557 83.4729 50.8593H82.8696C82.793 50.1507 82.6206 49.4516 82.3525 48.7622C82.1035 48.0727 81.7301 47.5078 81.2321 47.0673C80.7342 46.6076 80.083 46.3778 79.2787 46.3778C78.7616 46.3778 78.3211 46.531 77.9572 46.8375C77.6125 47.1439 77.4401 47.5652 77.4401 48.1015C77.4401 48.676 77.6125 49.1835 77.9572 49.624C78.3019 50.0645 78.7424 50.4858 79.2787 50.888C79.8341 51.2902 80.3895 51.7211 80.9449 52.1807C81.5577 52.6404 82.1035 53.1096 82.5823 53.5884C83.0803 54.048 83.4729 54.5555 83.7601 55.1109C84.0666 55.6472 84.2198 56.2983 84.2198 57.0644C84.2198 57.9262 83.9612 58.6827 83.4441 59.3338C82.927 59.985 82.2472 60.4925 81.4045 60.8564C80.5618 61.2202 79.6234 61.4022 78.5892 61.4022C77.9572 61.4022 77.4018 61.3352 76.923 61.2011C76.4634 61.0862 76.0804 60.933 75.7739 60.7415C75.4867 60.6074 75.2281 60.4925 74.9983 60.3967C74.7876 60.301 74.577 60.2339 74.3663 60.1956C74.1748 60.1765 74.012 60.2627 73.8779 60.4542C73.7439 60.6457 73.6386 60.8947 73.5619 61.2011H72.9587C72.997 60.5882 73.0257 59.8413 73.0449 58.9604C73.064 58.0794 73.0736 56.9112 73.0736 55.4556H73.6769C73.7918 56.4898 74.0024 57.3995 74.3089 58.1847C74.6344 58.9699 75.0653 59.5924 75.6016 60.052C76.1378 60.4925 76.7698 60.7127 77.4976 60.7127C77.8232 60.7127 78.12 60.6553 78.3881 60.5404C78.6754 60.4063 78.9052 60.2052 79.0776 59.9371C79.2691 59.669 79.3649 59.3242 79.3649 58.9029C79.3649 58.0602 79.0967 57.3612 78.5605 56.8058C78.0242 56.2313 77.3635 55.6088 76.5783 54.9385C75.9655 54.4215 75.3909 53.9139 74.8547 53.416C74.3376 52.9181 73.9067 52.3722 73.5619 51.7785C73.2364 51.1848 73.0736 50.5145 73.0736 49.7676C73.0736 48.9058 73.313 48.1781 73.7918 47.5844C74.2897 46.9715 74.9313 46.5119 75.7165 46.2055C76.5017 45.8799 77.3444 45.7171 78.2445 45.7171ZM91.6543 45.7171C92.497 45.7171 93.2247 45.8128 93.8376 46.0044C94.4504 46.1959 94.9005 46.3778 95.1878 46.5502C95.8581 46.9715 96.2602 46.7034 96.3943 45.7458H96.9976C96.9593 46.3012 96.9305 46.9715 96.9114 47.7567C96.8922 48.5228 96.8827 49.557 96.8827 50.8593H96.2794C96.2028 50.1507 96.0304 49.4516 95.7623 48.7622C95.5133 48.0727 95.1399 47.5078 94.6419 47.0673C94.144 46.6076 93.4928 46.3778 92.6885 46.3778C92.1714 46.3778 91.7309 46.531 91.367 46.8375C91.0223 47.1439 90.8499 47.5652 90.8499 48.1015C90.8499 48.676 91.0223 49.1835 91.367 49.624C91.7118 50.0645 92.1522 50.4858 92.6885 50.888C93.2439 51.2902 93.7993 51.7211 94.3547 52.1807C94.9675 52.6404 95.5133 53.1096 95.9921 53.5884C96.4901 54.048 96.8827 54.5555 97.1699 55.1109C97.4764 55.6472 97.6296 56.2983 97.6296 57.0644C97.6296 57.9262 97.371 58.6827 96.8539 59.3338C96.3368 59.985 95.657 60.4925 94.8143 60.8564C93.9716 61.2202 93.0332 61.4022 91.999 61.4022C91.367 61.4022 90.8116 61.3352 90.3328 61.2011C89.8732 61.0862 89.4902 60.933 89.1838 60.7415C88.8965 60.6074 88.6379 60.4925 88.4081 60.3967C88.1974 60.301 87.9868 60.2339 87.7761 60.1956C87.5846 60.1765 87.4218 60.2627 87.2878 60.4542C87.1537 60.6457 87.0484 60.8947 86.9718 61.2011H86.3685C86.4068 60.5882 86.4355 59.8413 86.4547 58.9604C86.4738 58.0794 86.4834 56.9112 86.4834 55.4556H87.0867C87.2016 56.4898 87.4122 57.3995 87.7187 58.1847C88.0442 58.9699 88.4751 59.5924 89.0114 60.052C89.5476 60.4925 90.1796 60.7127 90.9074 60.7127C91.233 60.7127 91.5298 60.6553 91.7979 60.5404C92.0852 60.4063 92.315 60.2052 92.4874 59.9371C92.6789 59.669 92.7747 59.3242 92.7747 58.9029C92.7747 58.0602 92.5065 57.3612 91.9703 56.8058C91.4341 56.2313 90.7733 55.6088 89.9881 54.9385C89.3753 54.4215 88.8007 53.9139 88.2645 53.416C87.7474 52.9181 87.3165 52.3722 86.9718 51.7785C86.6462 51.1848 86.4834 50.5145 86.4834 49.7676C86.4834 48.9058 86.7228 48.1781 87.2016 47.5844C87.6995 46.9715 88.3411 46.5119 89.1263 46.2055C89.9115 45.8799 90.7542 45.7171 91.6543 45.7171Z" fill="#FAF9F6"/>
</g>
<defs>
<clipPath id="clip0_7295_181">
<rect width="99" height="60" fill="white"/>
</clipPath>
</defs>
</svg>
